<svg xmlns="http://www.w3.org/2000/svg" width="38.58" height="25.166" viewBox="0 0 38.58 25.166"><g transform="translate(0 -89.012)"><g transform="translate(24.995 90.283)"><path d="M345.271,105.876l-13.562,11.293,13.585,9.041v-20.08A1.526,1.526,0,0,0,345.271,105.876Z" transform="translate(-331.709 -105.876)" fill="#313131"/></g><g transform="translate(0 102.594)"><path d="M23.772,269.264l-1.71,1.424a4.332,4.332,0,0,1-5.544,0l-1.71-1.424L0,279.119v.2a1.527,1.527,0,0,0,1.525,1.525H37.055a1.527,1.527,0,0,0,1.525-1.525v-.2Z" transform="translate(0 -269.264)" fill="#313131"/></g><g transform="translate(1.292 89.012)"><path d="M52.915,89.012H17.375a.233.233,0,0,0-.143.413L31.193,101.05l0,0,2.151,1.791a2.807,2.807,0,0,0,3.592,0L53.058,89.425A.233.233,0,0,0,52.915,89.012Z" transform="translate(-17.147 -89.012)" fill="#313131"/></g><g transform="translate(0 90.283)"><path d="M.023,105.876a1.524,1.524,0,0,0-.023.255v20.08l13.585-9.041Z" transform="translate(0 -105.876)" fill="#313131"/></g></g></svg>