<svg xmlns="http://www.w3.org/2000/svg" width="32" height="25.038" viewBox="0 0 32 25.038"><g transform="translate(-1156 859.974)"><path d="M4.232.922a1,1,0,0,1,1.536,0L8.633,4.36A1,1,0,0,1,7.865,6H2.135a1,1,0,0,1-.768-1.64Z" transform="translate(1156 -840.936)" fill="#313131"/><path d="M4.763.8A1,1,0,0,1,6.237.8l3.227,3.52A1,1,0,0,1,8.727,6H2.273a1,1,0,0,1-.737-1.676Z" transform="translate(1167 -853.936) rotate(180)" fill="#313131"/><rect width="2" height="17" transform="translate(1160 -855.936)" fill="#313131"/><path d="M804.912-832.064l7.021,14.875L808.6-809.4l-7.955-18.663Z" transform="translate(360.677 -27.356)" fill="#313131"/><path d="M832.971-809.7l.744,1.515h1.038l9.774-24.71h-2.192Z" transform="translate(336.297 -27.081)" fill="#313131"/><path d="M4.232.922a1,1,0,0,1,1.536,0L8.633,4.36A1,1,0,0,1,7.865,6H2.135a1,1,0,0,1-.768-1.64Z" transform="translate(1188 -853.936) rotate(180)" fill="#313131"/><path d="M5.89.469a1,1,0,0,1,1.219,0l3.56,2.738A1,1,0,0,1,10.06,5H2.94a1,1,0,0,1-.61-1.793Z" transform="translate(1175 -839.936)" fill="#313131"/><path d="M.391.261,7.639,0V21.547H0Z" transform="translate(1177.464 -858.299)" fill="#313131"/></g></svg>